<svg width="234" height="160" viewBox="0 0 234 160" fill="none" xmlns="http://www.w3.org/2000/svg">
<rect width="234" height="160" fill="black"/>
<path d="M145.863 160H124.938V52.675C124.938 37.225 129.888 24.625 139.788 14.875C149.838 5.12499 162.213 0.249991 176.913 0.249991C193.113 0.249991 205.263 4.37499 213.363 12.625C221.613 20.725 225.738 30.7 225.738 42.55C225.738 57.7 218.688 68.575 204.588 75.175V76.075C223.938 81.625 233.613 95.05 233.613 116.35C233.613 145.45 216.438 160 182.088 160H153.963V140.2H181.863C192.213 140.2 199.788 138.1 204.588 133.9C209.388 129.7 211.788 122.95 211.788 113.65C211.788 105.55 209.163 99.325 203.913 94.975C198.813 90.625 191.838 88.45 182.988 88.45H160.713V69.775H175.113C183.213 69.775 190.113 67.6 195.813 63.25C201.663 58.75 204.588 52.75 204.588 45.25C204.588 38.05 202.338 32.05 197.838 27.25C193.488 22.45 186.363 20.05 176.463 20.05C167.463 20.05 160.113 22.9 154.413 28.6C148.713 34.15 145.863 42.325 145.863 53.125V160Z" fill="white"/>
<path d="M88.137 160H109.062V52.675C109.062 37.225 104.112 24.625 94.212 14.875C84.162 5.12499 71.787 0.249991 57.087 0.249991C40.887 0.249991 28.737 4.37499 20.637 12.625C12.387 20.725 8.26201 30.7 8.26201 42.55C8.26201 57.7 15.312 68.575 29.412 75.175V76.075C10.062 81.625 0.387003 95.05 0.387003 116.35C0.387003 145.45 17.562 160 51.912 160H80.037V140.2H52.137C41.787 140.2 34.212 138.1 29.412 133.9C24.612 129.7 22.212 122.95 22.212 113.65C22.212 105.55 24.837 99.325 30.087 94.975C35.187 90.625 42.162 88.45 51.012 88.45H73.287V69.775H58.887C50.787 69.775 43.887 67.6 38.187 63.25C32.337 58.75 29.412 52.75 29.412 45.25C29.412 38.05 31.662 32.05 36.162 27.25C40.512 22.45 47.637 20.05 57.537 20.05C66.537 20.05 73.887 22.9 79.587 28.6C85.287 34.15 88.137 42.325 88.137 53.125V160Z" fill="white"/>
</svg>
