<svg width="373" height="310" viewBox="0 0 373 310" fill="none" xmlns="http://www.w3.org/2000/svg">
<path d="M149.719 309H180.234V152.484C180.234 129.953 173.016 111.578 158.578 97.3594C143.922 83.1406 125.875 76.0313 104.437 76.0313C80.8125 76.0313 63.0937 82.0469 51.2812 94.0781C39.25 105.891 33.2344 120.438 33.2344 137.719C33.2344 159.813 43.5156 175.672 64.0781 185.297V186.609C35.8594 194.703 21.75 214.281 21.75 245.344C21.75 287.781 46.7969 309 96.8906 309H137.906V280.125H97.2187C82.125 280.125 71.0781 277.063 64.0781 270.938C57.0781 264.813 53.5781 254.969 53.5781 241.406C53.5781 229.594 57.4062 220.516 65.0625 214.172C72.5 207.828 82.6719 204.656 95.5781 204.656H128.062V177.422H107.062C95.25 177.422 85.1875 174.25 76.875 167.906C68.3437 161.344 64.0781 152.594 64.0781 141.656C64.0781 131.156 67.3594 122.406 73.9219 115.406C80.2656 108.406 90.6562 104.906 105.094 104.906C118.219 104.906 128.937 109.063 137.25 117.375C145.562 125.469 149.719 137.391 149.719 153.141V309Z" fill="white"/>
<path d="M222.91 309H192.394V152.484C192.394 129.953 199.613 111.578 214.051 97.3594C228.707 83.1406 246.754 76.0313 268.191 76.0313C291.816 76.0313 309.535 82.0469 321.348 94.0781C333.379 105.891 339.394 120.438 339.394 137.719C339.394 159.813 329.113 175.672 308.551 185.297V186.609C336.769 194.703 350.879 214.281 350.879 245.344C350.879 287.781 325.832 309 275.738 309H234.723V280.125H275.41C290.504 280.125 301.551 277.063 308.551 270.938C315.551 264.813 319.051 254.969 319.051 241.406C319.051 229.594 315.223 220.516 307.566 214.172C300.129 207.828 289.957 204.656 277.051 204.656H244.566V177.422H265.566C277.379 177.422 287.441 174.25 295.754 167.906C304.285 161.344 308.551 152.594 308.551 141.656C308.551 131.156 305.269 122.406 298.707 115.406C292.363 108.406 281.973 104.906 267.535 104.906C254.41 104.906 243.691 109.063 235.379 117.375C227.066 125.469 222.91 137.391 222.91 153.141V309Z" fill="white"/>
</svg>
