<svg width="384" height="414" viewBox="0 0 384 414" fill="none" xmlns="http://www.w3.org/2000/svg">
<path d="M231.111 330H198.561V163.05C198.561 139.017 206.261 119.417 221.661 104.25C237.295 89.0833 256.545 81.5 279.411 81.5C304.611 81.5 323.511 87.9167 336.111 100.75C348.945 113.35 355.361 128.867 355.361 147.3C355.361 170.867 344.395 187.783 322.461 198.05V199.45C352.561 208.083 367.611 228.967 367.611 262.1C367.611 307.367 340.895 330 287.461 330H243.711V299.2H287.111C303.211 299.2 314.995 295.933 322.461 289.4C329.928 282.867 333.661 272.367 333.661 257.9C333.661 245.3 329.578 235.617 321.411 228.85C313.478 222.083 302.628 218.7 288.861 218.7H254.211V189.65H276.611C289.211 189.65 299.945 186.267 308.811 179.5C317.911 172.5 322.461 163.167 322.461 151.5C322.461 140.3 318.961 130.967 311.961 123.5C305.195 116.033 294.111 112.3 278.711 112.3C264.711 112.3 253.278 116.733 244.411 125.6C235.545 134.233 231.111 146.95 231.111 163.75V330Z" fill="white"/>
<path d="M152.435 330H184.985V163.05C184.985 139.017 177.285 119.417 161.885 104.25C146.252 89.0833 127.002 81.5 104.135 81.5C78.9354 81.5 60.0354 87.9167 47.4354 100.75C34.602 113.35 28.1854 128.867 28.1854 147.3C28.1854 170.867 39.152 187.783 61.0854 198.05V199.45C30.9854 208.083 15.9354 228.967 15.9354 262.1C15.9354 307.367 42.652 330 96.0854 330H139.835V299.2H96.4354C80.3354 299.2 68.552 295.933 61.0854 289.4C53.6187 282.867 49.8854 272.367 49.8854 257.9C49.8854 245.3 53.9687 235.617 62.1354 228.85C70.0687 222.083 80.9187 218.7 94.6854 218.7H129.335V189.65H106.935C94.3354 189.65 83.602 186.267 74.7354 179.5C65.6354 172.5 61.0854 163.167 61.0854 151.5C61.0854 140.3 64.5854 130.967 71.5854 123.5C78.352 116.033 89.4354 112.3 104.835 112.3C118.835 112.3 130.269 116.733 139.135 125.6C148.002 134.233 152.435 146.95 152.435 163.75V330Z" fill="white"/>
</svg>
